<mxfile host="app.diagrams.net" modified="2021-07-23T12:33:28.041Z" agent="5.0 (Windows NT 10.0; Win64; x64) AppleWebKit/537.36 (KHTML, like Gecko) Chrome/91.0.4472.164 Safari/537.36" etag="ssx5Mz1zx6S8YYlIWQbj" version="14.9.0" type="github">
  <diagram id="Nrx2Nkk0hEU9d9ttsI7z" name="Page-1">
    <mxGraphModel dx="1038" dy="547" grid="1" gridSize="10" guides="1" tooltips="1" connect="1" arrows="1" fold="1" page="1" pageScale="1" pageWidth="850" pageHeight="1100" math="0" shadow="0">
      <root>
        <mxCell id="0" />
        <mxCell id="1" parent="0" />
        <mxCell id="WVmfQmA1uJL8GBXDADlM-1" value="Portal" style="rounded=0;whiteSpace=wrap;html=1;" vertex="1" parent="1">
          <mxGeometry x="40" y="200" width="120" height="60" as="geometry" />
        </mxCell>
        <mxCell id="WVmfQmA1uJL8GBXDADlM-2" value="IE-HUB" style="rounded=0;whiteSpace=wrap;html=1;" vertex="1" parent="1">
          <mxGeometry x="40" y="300" width="120" height="60" as="geometry" />
        </mxCell>
        <mxCell id="WVmfQmA1uJL8GBXDADlM-3" value="IEM" style="rounded=0;whiteSpace=wrap;html=1;" vertex="1" parent="1">
          <mxGeometry x="240" y="300" width="120" height="60" as="geometry" />
        </mxCell>
        <mxCell id="WVmfQmA1uJL8GBXDADlM-5" value="IED" style="rounded=0;whiteSpace=wrap;html=1;" vertex="1" parent="1">
          <mxGeometry x="440" y="300" width="120" height="60" as="geometry" />
        </mxCell>
        <mxCell id="WVmfQmA1uJL8GBXDADlM-6" value="" style="endArrow=classic;startArrow=classic;html=1;entryX=0;entryY=0.5;entryDx=0;entryDy=0;" edge="1" parent="1" source="WVmfQmA1uJL8GBXDADlM-2" target="WVmfQmA1uJL8GBXDADlM-3">
          <mxGeometry width="50" height="50" relative="1" as="geometry">
            <mxPoint x="160" y="380" as="sourcePoint" />
            <mxPoint x="230.71067811865476" y="330" as="targetPoint" />
          </mxGeometry>
        </mxCell>
        <mxCell id="WVmfQmA1uJL8GBXDADlM-8" value="通信" style="edgeLabel;html=1;align=center;verticalAlign=middle;resizable=0;points=[];" vertex="1" connectable="0" parent="WVmfQmA1uJL8GBXDADlM-6">
          <mxGeometry x="0.395" y="1" relative="1" as="geometry">
            <mxPoint x="-16" y="1" as="offset" />
          </mxGeometry>
        </mxCell>
        <mxCell id="WVmfQmA1uJL8GBXDADlM-7" value="" style="endArrow=classic;startArrow=classic;html=1;entryX=0;entryY=0.5;entryDx=0;entryDy=0;" edge="1" parent="1">
          <mxGeometry width="50" height="50" relative="1" as="geometry">
            <mxPoint x="360" y="329.5" as="sourcePoint" />
            <mxPoint x="440" y="329.5" as="targetPoint" />
          </mxGeometry>
        </mxCell>
        <mxCell id="WVmfQmA1uJL8GBXDADlM-9" value="通信" style="edgeLabel;html=1;align=center;verticalAlign=middle;resizable=0;points=[];" vertex="1" connectable="0" parent="1">
          <mxGeometry x="400" y="330" as="geometry" />
        </mxCell>
        <mxCell id="WVmfQmA1uJL8GBXDADlM-10" value="PLC?&lt;br&gt;工厂设备？" style="rounded=0;whiteSpace=wrap;html=1;align=center;" vertex="1" parent="1">
          <mxGeometry x="640" y="300" width="120" height="60" as="geometry" />
        </mxCell>
        <mxCell id="WVmfQmA1uJL8GBXDADlM-11" value="" style="endArrow=classic;startArrow=classic;html=1;entryX=0;entryY=0.5;entryDx=0;entryDy=0;" edge="1" parent="1">
          <mxGeometry width="50" height="50" relative="1" as="geometry">
            <mxPoint x="560" y="329" as="sourcePoint" />
            <mxPoint x="640" y="329" as="targetPoint" />
          </mxGeometry>
        </mxCell>
        <mxCell id="WVmfQmA1uJL8GBXDADlM-12" value="通信" style="edgeLabel;html=1;align=center;verticalAlign=middle;resizable=0;points=[];" vertex="1" connectable="0" parent="WVmfQmA1uJL8GBXDADlM-11">
          <mxGeometry x="0.32" relative="1" as="geometry">
            <mxPoint x="-13" y="1" as="offset" />
          </mxGeometry>
        </mxCell>
        <mxCell id="WVmfQmA1uJL8GBXDADlM-13" value="IE-HUB：部署在阿里云Kubernetes上的，可以看作是一个应用商店，用户可以在上面购买APP。购买的APP可以下发到IEM中；&lt;br&gt;&lt;br&gt;IEM：Industrial Edge Management，工业边缘管理（用户自运营），主要是管理本地的APP，控制哪些APP部署到那些IED中。向上链接到IE-HUB云上，向下连接上IED管理工厂里的IED。该系统是一套Microk8s集群；&lt;br&gt;&lt;br&gt;IED：Industrial Edge Device，工业设备上的边缘运行环境（位于工厂车间）。主要运行本地APP，采集数据等。IED设备运行一套docker环境，客户可自己将自己编写的应用部署到docker环境中。" style="text;html=1;strokeColor=none;fillColor=none;align=left;verticalAlign=top;whiteSpace=wrap;rounded=0;" vertex="1" parent="1">
          <mxGeometry x="40" y="400" width="720" height="200" as="geometry" />
        </mxCell>
      </root>
    </mxGraphModel>
  </diagram>
</mxfile>
